<?xml version="1.0" encoding="utf-8"?>
<!-- Generator: Adobe Illustrator 19.2.1, SVG Export Plug-In . SVG Version: 6.00 Build 0)  -->
<svg version="1.1" id="Layer_1" xmlns="http://www.w3.org/2000/svg" xmlns:xlink="http://www.w3.org/1999/xlink" x="0px" y="0px"
	 viewBox="0 0 82.5 82.33" style="enable-background:new 0 0 82.5 82.33;" xml:space="preserve">
<style type="text/css">
	.st0{fill:none;stroke:#000000;stroke-linecap:round;stroke-linejoin:round;stroke-miterlimit:10;}
</style>
<path class="st0" d="M31.12,61.91l-1.02-2.47l-5.52,2.28l6.09,14.69c1.69,4.06,6.35,5.98,10.41,4.3v0
	c4.06-1.68,5.99-6.33,4.31-10.39l0,0c-0.84-2.03-2.42-3.52-4.31-4.31L31.12,61.91z"/>
<path class="st0" d="M41.72,71.86c-0.42-1.02-1.21-1.76-2.16-2.15l-8.88-3.68l3.68,8.86c0.85,2.03,3.17,2.99,5.2,2.15l0,0
	C41.6,76.22,42.56,73.89,41.72,71.86L41.72,71.86z"/>
<path class="st0" d="M19.26,46.29l-7.62-18.37L19.26,46.29z"/>
<path class="st0" d="M28.26,60.21L13.03,23.48c-2.66,6.42-2.87,13.86,0,20.79l4.83,11.64l5.97,3.99l0.76,1.83L28.26,60.21z"/>
<path class="st0" d="M15.87,61.91l1.02-2.47l5.52,2.28l-6.09,14.69c-1.68,4.06-6.34,5.98-10.4,4.3v0
	c-4.06-1.68-5.99-6.33-4.31-10.39l0,0c0.84-2.03,2.43-3.52,4.31-4.31L15.87,61.91z"/>
<path class="st0" d="M5.28,71.86c0.42-1.02,1.21-1.76,2.16-2.15l8.88-3.68l-3.68,8.86c-0.84,2.03-3.17,2.99-5.2,2.15l0,0
	C5.41,76.22,4.44,73.89,5.28,71.86L5.28,71.86z"/>
<polygon class="st0" points="19.94,57.3 18.74,60.21 22.41,61.73 23.17,59.9 23.5,59.68 "/>
<polygon class="st0" points="29.63,54.71 29.63,33.93 23.49,48.73 27.05,57.3 29.13,55.91 "/>
<path class="st0" d="M81,10.67v4.67V10.67z"/>
<path class="st0" d="M81,20.01v4.67V20.01z"/>
<path class="st0" d="M81,29.35v4.67V29.35z"/>
<path class="st0" d="M81,38.69v4.67V38.69z"/>
<path class="st0" d="M81,48.04v4.67V48.04z"/>
<path class="st0" d="M81,57.38v4.67V57.38z"/>
<path class="st0" d="M29.63,10.67v4.67V10.67z"/>
<path class="st0" d="M29.63,20.01v4.67V20.01z"/>
<path class="st0" d="M29.63,29.35v4.67V29.35z"/>
<path class="st0" d="M38.97,1.33h4.67H38.97z"/>
<path class="st0" d="M48.31,1.33h4.67H48.31z"/>
<path class="st0" d="M57.65,1.33h4.67H57.65z"/>
<path class="st0" d="M66.99,1.33h4.67H66.99z"/>
<polygon class="st0" points="29.63,6 29.63,1.33 34.3,1.33 29.63,1.33 "/>
<polygon class="st0" points="81,6 81,1.33 81,1.33 76.33,1.33 81,1.33 81,1.33 "/>
<polygon class="st0" points="81,66.71 81,71.39 81,71.39 76.33,71.39 81,71.39 81,71.39 "/>
<path class="st0" d="M66.99,71.39h4.67H66.99z"/>
<path class="st0" d="M57.65,71.39h4.67H57.65z"/>
<path class="st0" d="M48.31,71.39h4.67H48.31z"/>
</svg>
