<?xml version="1.0" encoding="UTF-8"?>
<svg width="40px" height="41px" viewBox="0 0 40 41" version="1.1" xmlns="http://www.w3.org/2000/svg" xmlns:xlink="http://www.w3.org/1999/xlink">
    <!-- Generator: Sketch 61.1 (89650) - https://sketch.com -->
    <title>svg/black/settings</title>
    <desc>Created with Sketch.</desc>
    <g id="**-Sticker-Sheets" stroke="none" stroke-width="1" fill="none" fill-rule="evenodd" stroke-linecap="round" stroke-linejoin="round">
        <g id="sticker-sheet--all--page-5" transform="translate(-417.000000, -2739.000000)" stroke="#000000" stroke-width="2">
            <g id="icon-preview-row-copy-220" transform="translate(0.000000, 2717.000000)">
                <g id="Icon-Row">
                    <g id="settings" transform="translate(413.000000, 18.214286)">
                        <path d="M24,29 C26.7614237,29 29,26.7614237 29,24 C29,21.2385763 26.7614237,19 24,19 C21.2385763,19 19,21.2385763 19,24 C19,26.7614237 21.2385763,29 24,29 Z M36.7818182,29.1818182 C36.3114016,30.247701 36.5371226,31.4925865 37.3518182,32.3254545 L37.4554545,32.4290909 C38.1041389,33.077054 38.4686266,33.9563135 38.4686266,34.8731818 C38.4686266,35.7900501 38.1041389,36.6693097 37.4554545,37.3172727 C36.8074915,37.9659571 35.9282319,38.3304448 35.0113636,38.3304448 C34.0944953,38.3304448 33.2152358,37.9659571 32.5672727,37.3172727 L32.4636364,37.2136364 C31.6307684,36.3989408 30.3858828,36.1732198 29.32,36.6436364 C28.2759144,37.0911179 27.5972577,38.1158895 27.5927273,39.2518182 L27.5927273,39.5454545 C27.5927273,41.4533473 26.0460746,43 24.1381818,43 C22.230289,43 20.6836364,41.4533473 20.6836364,39.5454545 L20.6836364,39.39 C20.6562705,38.2200678 19.9165058,37.1857671 18.8181818,36.7818182 C17.752299,36.3114016 16.5074135,36.5371226 15.6745455,37.3518182 L15.5709091,37.4554545 C14.922946,38.1041389 14.0436865,38.4686266 13.1268182,38.4686266 C12.2099499,38.4686266 11.3306903,38.1041389 10.6827273,37.4554545 C10.0340429,36.8074915 9.66955519,35.9282319 9.66955519,35.0113636 C9.66955519,34.0944953 10.0340429,33.2152358 10.6827273,32.5672727 L10.7863636,32.4636364 C11.6010592,31.6307684 11.8267802,30.3858828 11.3563636,29.32 C10.9088821,28.2759144 9.8841105,27.5972577 8.74818182,27.5927273 L8.45454545,27.5927273 C6.54665268,27.5927273 5,26.0460746 5,24.1381818 C5,22.230289 6.54665268,20.6836364 8.45454545,20.6836364 L8.61,20.6836364 C9.77993222,20.6562705 10.8142329,19.9165058 11.2181818,18.8181818 C11.6885984,17.752299 11.4628774,16.5074135 10.6481818,15.6745455 L10.5445455,15.5709091 C9.89586112,14.922946 9.53137337,14.0436865 9.53137337,13.1268182 C9.53137337,12.2099499 9.89586112,11.3306903 10.5445455,10.6827273 C11.1925085,10.0340429 12.0717681,9.66955519 12.9886364,9.66955519 C13.9055047,9.66955519 14.7847642,10.0340429 15.4327273,10.6827273 L15.5363636,10.7863636 C16.3692316,11.6010592 17.6141172,11.8267802 18.68,11.3563636 L18.8181818,11.3563636 C19.8622674,10.9088821 20.5409241,9.8841105 20.5454545,8.74818182 L20.5454545,8.45454545 C20.5454545,6.54665268 22.0921072,5 24,5 C25.9078928,5 27.4545455,6.54665268 27.4545455,8.45454545 L27.4545455,8.61 C27.4590759,9.74592868 28.1377326,10.7707002 29.1818182,11.2181818 C30.247701,11.6885984 31.4925865,11.4628774 32.3254545,10.6481818 L32.4290909,10.5445455 C33.077054,9.89586112 33.9563135,9.53137337 34.8731818,9.53137337 C35.7900501,9.53137337 36.6693097,9.89586112 37.3172727,10.5445455 C37.9659571,11.1925085 38.3304448,12.0717681 38.3304448,12.9886364 C38.3304448,13.9055047 37.9659571,14.7847642 37.3172727,15.4327273 L37.2136364,15.5363636 C36.3989408,16.3692316 36.1732198,17.6141172 36.6436364,18.68 L36.6436364,18.8181818 C37.0911179,19.8622674 38.1158895,20.5409241 39.2518182,20.5454545 L39.5454545,20.5454545 C41.4533473,20.5454545 43,22.0921072 43,24 C43,25.9078928 41.4533473,27.4545455 39.5454545,27.4545455 L39.39,27.4545455 C38.2540713,27.4590759 37.2292998,28.1377326 36.7818182,29.1818182 Z"></path>
                    </g>
                </g>
            </g>
        </g>
    </g>
</svg>