<?xml version="1.0" encoding="UTF-8"?>
<svg width="56px" height="48px" viewBox="0 0 56 48" version="1.1" xmlns="http://www.w3.org/2000/svg" xmlns:xlink="http://www.w3.org/1999/xlink">
    <!-- Generator: Sketch 61.1 (89650) - https://sketch.com -->
    <title>svg/black/user-network--c</title>
    <desc>Created with Sketch.</desc>
    <g id="**-Sticker-Sheets" stroke="none" stroke-width="1" fill="none" fill-rule="evenodd" stroke-linecap="round" stroke-linejoin="round">
        <g id="sticker-sheet--all--page-6" transform="translate(-417.000000, -3078.000000)" stroke="#000000" stroke-width="2">
            <g id="icon-preview-row-copy-22" transform="translate(0.000000, 3059.000000)">
                <g id="Icon-Row--Large-icon">
                    <g id="user-network--c" transform="translate(413.000000, 10.000000)">
                        <path d="M21.7951354,12.7957821 C24.7826905,11.0198601 28.2722447,10 32,10 C35.7277553,10 39.2173095,11.0198601 42.2048646,12.7957821 M51.3698299,35.0003211 C50.1176945,39.8648719 47.0813749,44.0131322 43,46.7059175 M20.9997776,46.7058074 C16.9185423,44.0130191 13.8822885,39.8648056 12.6301701,35.0003211 M40,56 L40,54 C40,51.790861 38.209139,50 36,50 L28,50 C25.790861,50 24,51.790861 24,54 L24,56 M32,46 C34.209139,46 36,44.209139 36,42 C36,39.790861 34.209139,38 32,38 C29.790861,38 28,39.790861 28,42 C28,44.209139 29.790861,46 32,46 Z M59,32 L59,30 C59,27.790861 57.209139,26 55,26 L47,26 C44.790861,26 43,27.790861 43,30 L43,32 M51,22 C53.209139,22 55,20.209139 55,18 C55,15.790861 53.209139,14 51,14 C48.790861,14 47,15.790861 47,18 C47,20.209139 48.790861,22 51,22 Z M5,32 L5,30 C5,27.790861 6.790861,26 9,26 L17,26 C19.209139,26 21,27.790861 21,30 L21,32 M13,22 C10.790861,22 9,20.209139 9,18 C9,15.790861 10.790861,14 13,14 C15.209139,14 17,15.790861 17,18 C17,20.209139 15.209139,22 13,22 Z"></path>
                    </g>
                </g>
            </g>
        </g>
    </g>
</svg>