<?xml version="1.0" encoding="UTF-8"?>
<svg width="38px" height="33px" viewBox="0 0 38 33" version="1.1" xmlns="http://www.w3.org/2000/svg" xmlns:xlink="http://www.w3.org/1999/xlink">
    <!-- Generator: Sketch 61.1 (89650) - https://sketch.com -->
    <title>svg/black/user-check</title>
    <desc>Created with Sketch.</desc>
    <g id="**-Sticker-Sheets" stroke="none" stroke-width="1" fill="none" fill-rule="evenodd" stroke-linecap="round" stroke-linejoin="round">
        <g id="sticker-sheet--all--page-6" transform="translate(-418.000000, -2660.000000)" stroke="#000000" stroke-width="2">
            <g id="icon-preview-row-copy-269" transform="translate(0.000000, 2634.000000)">
                <g id="Icon-Row">
                    <g id="user-check" transform="translate(413.000000, 18.214286)">
                        <path d="M31,39 L31,35.6666667 C31,31.9847683 28.0152317,29 24.3333333,29 L12.6666667,29 C8.98476833,29 6,31.9847683 6,35.6666667 L6,39 M18.6818182,23 C22.5478114,23 25.6818182,19.8659932 25.6818182,16 C25.6818182,12.1340068 22.5478114,9 18.6818182,9 C14.8158249,9 11.6818182,12.1340068 11.6818182,16 C11.6818182,19.8659932 14.8158249,23 18.6818182,23 Z M32,22.5 L35.3333333,26 L42,19"></path>
                    </g>
                </g>
            </g>
        </g>
    </g>
</svg>